<svg data-v-0dd9719b="" version="1.0" xmlns="http://www.w3.org/2000/svg" xmlns:xlink="http://www.w3.org/1999/xlink" width="100%" height="100%" viewBox="0 0 340.000000 250.000000" preserveAspectRatio="xMidYMid meet" color-interpolation-filters="sRGB" style="margin: auto;"> <rect data-v-0dd9719b="" x="0" y="0" width="100%" height="100%" fill="#fff" fill-opacity="1" class="background"></rect> <rect data-v-0dd9719b="" x="0" y="0" width="100%" height="100%" fill="url(#watermark)" fill-opacity="1" class="watermarklayer"></rect> <g data-v-0dd9719b="" fill="#ff2351" class="icon-text-wrapper icon-svg-group iconsvg" transform="translate(61.495811462402344,93.56334495544434)"><g class="iconsvg-imagesvg" transform="translate(0,0)"><g><rect fill="#ff2351" fill-opacity="0" stroke-width="2" x="0" y="0" width="60" height="62.87331027978623" class="image-rect"></rect> <svg x="0" y="0" width="60" height="62.87331027978623" filtersec="colorsb5958590233" class="image-svg-svg primary" style="overflow: visible;"><svg xmlns="http://www.w3.org/2000/svg" viewBox="0 0 73.49999237060547 77.02000427246094"><g><g><path fill="#ff2351" d="M5.02 77.02H63V59.88H30.36V43.81h-4.41v-5.13h9.65V0H15.41v5.14h-5.15v28.4h5.24V38.68H0v5.13h5.02v33.21z"></path><path fill="#ff2351" d="M0 23.27h5.14v5.14H0z"></path><path fill="#00d8eb" d="M57.76 77.02h10.47V64.99h5.27v-5.13H63v.02H35.6V43.81h-9.65v-5.13h22.54v-5.14h-7.65V0H15.5v38.68h-5.24v38.34h47.5z"></path><path fill="#00d8eb" d="M48.49 38.68h5.14v5.14h-5.14z"></path><path fill="#000b34" d="M63 64.99v-5.11H30.36V43.81h-4.41v-5.13h9.65V0H15.5v38.68h-5.24v38.34H63V64.99z"></path></g></g></svg></svg> <!----></g></g> <g transform="translate(67,10.863365173339844)"><g data-gra="path-name" fill-rule="" class="tp-name iconsvg-namesvg"><g transform="scale(1)"><g><path d="M3.05-41.13L3.05-41.13Q4.16-41.37 4.69-40.43L4.69-40.43Q4.75-40.2 4.75-38.5L4.75-38.5 4.75-4.98Q4.98-2.99 6.97-2.46L6.97-2.46 30.64-2.46Q31.46-2.64 31.64-1.52L31.64-1.52Q31.82-0.76 31.05-0.23L31.05-0.23Q30.82-0.12 29.06-0.12L29.06-0.12 5.86-0.12Q3.11-0.23 2.4-3.34L2.4-3.34 2.4-38.38Q2.11-40.25 3.05-41.13ZM34.57-2.87L34.57-40.02Q34.86-40.96 35.8-40.96L35.8-40.96Q36.5-40.84 36.8-40.25L36.8-40.25Q36.91-39.96 36.91-38.32L36.91-38.32 36.91-2.75Q36.91-1 36.8-0.64L36.8-0.64Q36.56-0.23 36.04-0.12L36.04-0.12Q35.21 0.06 34.69-0.82L34.69-0.82Q34.57-1.11 34.57-2.87L34.57-2.87ZM42.66-41.13L42.66-41.13Q43.77-41.37 44.3-40.43L44.3-40.43Q44.36-40.2 44.36-38.5L44.36-38.5 44.36-4.98Q44.59-2.99 46.58-2.46L46.58-2.46 70.25-2.46Q71.07-2.64 71.25-1.52L71.25-1.52Q71.43-0.76 70.66-0.23L70.66-0.23Q70.43-0.12 68.67-0.12L68.67-0.12 45.47-0.12Q42.71-0.23 42.01-3.34L42.01-3.34 42.01-38.38Q41.72-40.25 42.66-41.13ZM74.18-2.87L74.18-40.02Q74.47-40.96 75.41-40.96L75.41-40.96Q76.11-40.84 76.41-40.25L76.41-40.25Q76.52-39.96 76.52-38.32L76.52-38.32 76.52-2.75Q76.52-1 76.41-0.64L76.41-0.64Q76.17-0.23 75.64-0.12L75.64-0.12Q74.82 0.06 74.3-0.82L74.3-0.82Q74.18-1.11 74.18-2.87L74.18-2.87ZM97.56-40.31L97.56-40.31Q99.43-41.89 101.19-40.2L101.19-40.2Q101.66-39.79 102.01-39.02L102.01-39.02Q110.1-20.86 118.24-2.7L118.24-2.7Q118.77-1.64 118.71-1.23L118.71-1.23Q118.59-0.29 117.71-0.18L117.71-0.18Q115.96 0.35 115.37-1.7L115.37-1.7 111.62-10.14Q110.98-11.54 109.57-11.54L109.57-11.54 88.42-11.54Q87.01-11.54 86.31-10.14L86.31-10.14Q84.08-5.57 81.97-1L81.97-1Q81.04 0.47 79.8-0.47L79.8-0.47Q79.34-0.88 79.51-1.64L79.51-1.64Q80.1-3.16 81.62-6.33L81.62-6.33Q89.12-22.73 96.8-39.14L96.8-39.14Q97.15-39.84 97.56-40.31ZM109.51-15.35L100.08-36.74Q99.61-38.03 98.55-37.27L98.55-37.27Q98.2-36.91 97.85-36.09L97.85-36.09Q93.05-25.72 88.36-15.29L88.36-15.29Q87.77-13.89 89.18-13.89L89.18-13.89 108.75-13.89Q110.16-13.89 109.51-15.35L109.51-15.35ZM121.41-40.9L121.41-40.9Q123.28-41.72 125.27-40.02L125.27-40.02Q136.82-22.38 148.3-4.63L148.3-4.63Q149.36-3.28 149.53-3.28L149.53-3.28Q149.88-3.34 150-3.93L150-3.93 150-38.55Q150-40.31 150.06-40.49L150.06-40.49Q150.41-41.13 150.94-41.07L150.94-41.07Q151.82-41.31 152.23-40.37L152.23-40.37Q152.34-40.02 152.34-38.32L152.34-38.32 152.34-1.99Q151.99 0.59 149.77-0.23L149.77-0.23Q148.59-0.59 147.36-1.93L147.36-1.93Q141.15-11.07 124.04-37.09L124.04-37.09Q123.69-37.85 123.11-37.73L123.11-37.73Q122.99-37.62 122.81-37.03L122.81-37.03Q122.81-36.74 122.7-36.45L122.7-36.45 122.7-2.87Q122.7-1.11 122.58-0.76L122.58-0.76Q122.05 0.06 121.05-0.23L121.05-0.23Q120.64-0.41 120.47-0.88L120.47-0.88Q120.35-1.17 120.35-2.93L120.35-2.93 120.35-39.32Q120.53-40.55 121.41-40.9Z" transform="translate(-2.3316259384155273, 41.17881393432617)"></path></g> <!----> <!----> <!----> <!----> <!----> <!----> <!----></g></g> <!----></g></g><defs v-gra="od"></defs></svg>